inDegrees=no
num_controls=7
num_derivatives=13
num_iterations=140
num_multipliers=7
num_parameters=0
num_slacks=7
num_states=26
objective=0.464432
objective_accelerations=0.002541
objective_balance=0.002132
objective_effort=0.003939
objective_height=0.453761
objective_ligament=0.002060
solver_duration=2272.230193
status=Solve_Succeeded
success=true
DataType=double
version=3
OpenSimVersion=4.5
endheader
time	/jointset/ground_pelvis/pelvis_tilt/value	/jointset/ground_pelvis/pelvis_tx/value	/jointset/ground_pelvis/pelvis_ty/value	/jointset/hip_l/hip_flexion_l/value	/jointset/hip_l/hip_adduction_l/value	/jointset/hip_l/hip_rotation_l/value	/jointset/back/lumbar_extension/value	/jointset/patellofemoral_l/patellar_flexion_l/value	/jointset/knee_l/knee_flexion_l/value	/jointset/knee_l/knee_adduction_l/value	/jointset/knee_l/knee_rotation_l/value	/jointset/ankle_l/ankle_angle_l/value	/jointset/subtalar_l/subtalar_angle_l/value	/jointset/ground_pelvis/pelvis_tilt/speed	/jointset/ground_pelvis/pelvis_tx/speed	/jointset/ground_pelvis/pelvis_ty/speed	/jointset/hip_l/hip_flexion_l/speed	/jointset/hip_l/hip_adduction_l/speed	/jointset/hip_l/hip_rotation_l/speed	/jointset/back/lumbar_extension/speed	/jointset/patellofemoral_l/patellar_flexion_l/speed	/jointset/knee_l/knee_flexion_l/speed	/jointset/knee_l/knee_adduction_l/speed	/jointset/knee_l/knee_rotation_l/speed	/jointset/ankle_l/ankle_angle_l/speed	/jointset/subtalar_l/subtalar_angle_l/speed	/forceset/tau_hip_flexion_l	/forceset/tau_hip_adduction_l	/forceset/tau_hip_rotation_l	/forceset/tau_knee_flexion_l	/forceset/tau_ankle_angle_l	/forceset/tau_subtalar_angle_l	/forceset/tau_lumbar_extension	lambda_cid13_p0	lambda_cid13_p1	lambda_cid13_p2	lambda_cid13_p3	lambda_cid13_p4	lambda_cid13_p5	lambda_cid14_p0	/jointset/ground_pelvis/pelvis_tilt/accel	/jointset/ground_pelvis/pelvis_tx/accel	/jointset/ground_pelvis/pelvis_ty/accel	/jointset/hip_l/hip_flexion_l/accel	/jointset/hip_l/hip_adduction_l/accel	/jointset/hip_l/hip_rotation_l/accel	/jointset/back/lumbar_extension/accel	/jointset/patellofemoral_l/patellar_flexion_l/accel	/jointset/knee_l/knee_flexion_l/accel	/jointset/knee_l/knee_adduction_l/accel	/jointset/knee_l/knee_rotation_l/accel	/jointset/ankle_l/ankle_angle_l/accel	/jointset/subtalar_l/subtalar_angle_l/accel	gamma_cid13_p0	gamma_cid13_p1	gamma_cid13_p2	gamma_cid13_p3	gamma_cid13_p4	gamma_cid13_p5	gamma_cid14_p0
0.5	-0.06173189345906751	0.07752910757686281	0.8920033709290195	0.2341713912526268	-0.3344184536258021	-0.5109543937693395	-0.2211328735469353	0.1269979925646441	0.1269979925646406	-0.1745148372588433	-0.1636853363615421	-0.03291539495737213	0.009360287042347993	-0.03809963547512957	0.0116257911420345	-0.01235126297496688	0.1066951140519222	-0.04038299407439656	0.0878336973344762	-0.1964335826198747	0.154026580321673	0.1540265803216737	3.691415996353876e-07	0.02927231096465134	0.08863821715171179	0.003819827158784944	-0.02762324290570569	0.02290405459954313	-0.01578804761286559	-0.09455603467195339	0.04061609160842636	-0.008707847586894284	0.07067321458007728	-23.11667336527677	0.8776056342375644	7.464766949346698	3.227337558911607	-546.4731206557044	-59.02026120166224	-42.04261470265618	0.008429295953720259	-0.0001719548455745991	0.002040960375947856	-0.05144177724966416	0.03316364008650439	0.01064541474357641	0.2981743675319813	-0.1027524661960388	-0.1027524661960397	-0.0003213604854543427	0.0460151154455777	-0.04465659008339203	0.01115450220341826	-4.816282939004913e-10	1.53697247302179e-09	1.441820314989306e-09	1.377126799972042e-10	1.57817776272911e-09	-4.909417167383839e-10	-1.502849361063987e-10
0.51	-0.06211249779898102	0.07764537488941181	0.8918799714045318	0.2352356962976662	-0.3348205849186819	-0.5100755891362901	-0.2230819935306935	0.1285329602736811	0.1285329602736839	-0.1745148488809752	-0.1633903111112075	-0.03203130284103808	0.009399056853671177	-0.03802138536558724	0.01162985885792757	-0.01232687096464679	0.106151751442325	-0.04003764890149205	0.08791781572916418	-0.1933613446155518	0.1529447140505372	0.1529447140505373	-2.566826890440596e-06	0.02973244994389888	0.08817217069980186	0.003935996892168155	-0.02874646414249789	0.02395203828739659	-0.01552562312049647	-0.09360645803841094	0.038960623159774	-0.008540117284321368	0.07168897095881913	-23.63366344561091	0.8963597513276519	7.460545495659788	3.342910263777613	-546.5736592411158	-58.83721007096018	-42.04912602787503	0.007499745432369762	0.001024280163321615	0.002904317718970355	-0.0579052009839008	0.03606187250079793	0.00588291469677722	0.31610894435061	-0.114240800650641	-0.1142408006507402	-0.0002602746991662885	0.04597002736843177	-0.0487840012419801	0.01212707706747619	-2.908586140249462e-10	1.66490443956298e-09	1.163804029675325e-09	8.384464041609343e-11	1.921931677842968e-09	-2.343914039023438e-10	-7.004757991008782e-11
0.52	-0.06249232426240448	0.07776174850819094	0.8917568689994191	0.2362941433769756	-0.3352190943765101	-0.5091962257467207	-0.2249995190489149	0.1300564419013958	0.1300564419014006	-0.17451488597473	-0.1630906931234305	-0.03115211225492256	0.009439044135960585	-0.03794406017692551	0.01164705238806161	-0.01229183909996889	0.1055235209059587	-0.03965862706425322	0.08794544863846702	-0.1901146895124966	0.15172936405627	0.1517293640562694	-4.725182115728672e-06	0.0301908584513086	0.08765791110800483	0.004063321352019486	-0.02986968537928395	0.02500002197524976	-0.01526319862818096	-0.09265688140485541	0.03730515471112462	-0.008372386981746532	0.07270472733756393	-24.15155826860127	0.9153352637323209	7.456216815110598	3.460413055440066	-546.6877708870703	-58.65698449482926	-42.05508026368734	0.008244311777612159	0.002453208002611018	0.00416893124750959	-0.06841536260350863	0.03989897295336227	-0.0006516823334484013	0.3330577872784514	-0.1294492108223342	-0.1294492108223385	-0.0001658378325145518	0.04566902107801327	-0.05429921806082647	0.01338544749702629	-9.501933278888169e-11	1.807273490301599e-09	8.741895486449205e-10	3.245335308461806e-11	2.242325356857411e-09	4.468234534470007e-11	1.348288636771553e-11
0.53	-0.06287139220658634	0.07787836011053802	0.8916341679766007	0.2373459140349849	-0.3356136499543186	-0.5083168739239315	-0.2268837128255333	0.1315671402696722	0.1315671402696768	-0.17451492904669	-0.1627865178609032	-0.03027828692823107	0.00948036562609645	-0.03786957087032364	0.01167759853541591	-0.01224662165696237	0.1048168167386514	-0.03924728759423032	0.0879157163155161	-0.1866967148562973	0.1503894972725578	0.1503894972725578	-3.702993442442167e-06	0.03064364176455255	0.08709998939652151	0.004202873653631656	-0.03094442353600999	0.02600008361690853	-0.01501006853868978	-0.09177580560761632	0.03574261126537222	-0.008219204598039778	0.07367831397748555	-24.63940881431116	0.9362502684541276	7.45057161339595	3.560564037075679	-546.7865872031454	-58.4767500864518	-42.06047412304149	0.007044742263294882	0.003704887280655875	0.004960203963381011	-0.07386716994033947	0.04253116910120896	-0.005513957105253159	0.3502699480556464	-0.1393772726408662	-0.1393772726407867	0.000264574436256162	0.04500015174175574	-0.05761333388757345	0.01452428439117967	9.327259731261153e-11	1.958707298771674e-09	5.842607553602288e-10	-1.225474647598772e-11	2.545482258657483e-09	3.185622525183846e-10	9.704262207993918e-11
0.54	-0.06324971655727055	0.07799534708819429	0.8915119715388394	0.2383902038060918	-0.3360039361904112	-0.5074380954143375	-0.2287329063269367	0.1330638155980157	0.1330638155980181	-0.1745149562313234	-0.1624778313321779	-0.02941025575589348	0.00952313947182805	-0.03779534147724574	0.01172212744989995	-0.01219092208850627	0.1040273435255006	-0.03880475872122996	0.08783078599939158	-0.1831146344694931	0.1489247560690379	0.1489247560690385	-1.54771600857386e-06	0.03109311168956199	0.08649908023721922	0.004353792471158672	-0.03201916169272909	0.02700014525856778	-0.01475693844923715	-0.09089472981036537	0.03418006781962348	-0.008066022214330063	0.07465190061740987	-25.12831581131622	0.9573925098985657	7.444841922595101	3.66317056141642	-546.9010729595911	-58.29971055511998	-42.0653070057848	0.008192329072828514	0.005249761428549381	0.006265356337425842	-0.08496917177222676	0.04613685354884239	-0.01169128096817108	0.3658789333994517	-0.1544240947838835	-0.1544240947838838	6.077991958198658e-05	0.04500634343111248	-0.06289670762463548	0.01565875067997891	2.732142665843664e-10	2.120170200902085e-09	2.939842123473902e-10	-4.956868084329087e-11	2.829568683539527e-09	5.866957812279269e-10	1.806347409962023e-10
